<?xml version="1.0" encoding="utf-8" standalone="no"?>
<!DOCTYPE svg PUBLIC "-//W3C//DTD SVG 1.1//EN"
  "http://www.w3.org/Graphics/SVG/1.1/DTD/svg11.dtd">
<!-- Created with matplotlib (https://matplotlib.org/) -->
<svg height="288pt" version="1.1" viewBox="0 0 432 288" width="432pt" xmlns="http://www.w3.org/2000/svg" xmlns:xlink="http://www.w3.org/1999/xlink">
 <metadata>
  <rdf:RDF xmlns:cc="http://creativecommons.org/ns#" xmlns:dc="http://purl.org/dc/elements/1.1/" xmlns:rdf="http://www.w3.org/1999/02/22-rdf-syntax-ns#">
   <cc:Work>
    <dc:type rdf:resource="http://purl.org/dc/dcmitype/StillImage"/>
    <dc:date>2021-03-17T11:41:58.491704</dc:date>
    <dc:format>image/svg+xml</dc:format>
    <dc:creator>
     <cc:Agent>
      <dc:title>Matplotlib v3.3.3, https://matplotlib.org/</dc:title>
     </cc:Agent>
    </dc:creator>
   </cc:Work>
  </rdf:RDF>
 </metadata>
 <defs>
  <style type="text/css">*{stroke-linecap:butt;stroke-linejoin:round;}</style>
 </defs>
 <g id="figure_1">
  <g id="patch_1">
   <path d="M 0 288 
L 432 288 
L 432 0 
L 0 0 
z
" style="fill:none;"/>
  </g>
  <g id="axes_1">
   <g id="line2d_1">
    <path clip-path="url(#pe0dd7b6c96)" d="M 69.218182 242.116364 
L 74.819033 242.006612 
L 78.015171 241.713372 
L 80.815596 241.235912 
L 83.433385 240.5662 
L 85.959856 239.692411 
L 88.455887 238.595407 
L 90.982358 237.23995 
L 93.539268 235.613775 
L 96.187497 233.661341 
L 98.927044 231.361349 
L 101.818787 228.637723 
L 104.893167 225.430248 
L 108.211063 221.640676 
L 111.863792 217.123939 
L 116.033991 211.603409 
L 121.147811 204.445794 
L 129.762163 191.931389 
L 137.524212 180.812993 
L 142.516275 174.043944 
L 146.747353 168.672106 
L 150.521839 164.231018 
L 153.991932 160.483869 
L 157.248949 157.289536 
L 160.323329 154.582198 
L 163.245512 152.300977 
L 166.045937 150.392408 
L 168.755045 148.811844 
L 171.372834 147.537542 
L 173.929744 146.535651 
L 176.456215 145.782515 
L 178.952246 145.269458 
L 181.448278 144.984629 
L 183.944309 144.925503 
L 186.44034 145.088464 
L 188.966811 145.474816 
L 191.554161 146.095254 
L 194.232829 146.969477 
L 197.002815 148.111914 
L 199.864119 149.534635 
L 202.87762 151.284731 
L 206.043319 153.382785 
L 209.422093 155.891864 
L 213.074822 158.886959 
L 217.062384 162.450649 
L 221.536977 166.757186 
L 226.742116 172.087942 
L 233.408346 179.254423 
L 254.25934 201.897153 
L 259.981949 207.650113 
L 265.06533 212.45114 
L 269.783438 216.604793 
L 274.227592 220.225125 
L 278.489109 223.41471 
L 282.659308 226.259817 
L 286.738188 228.774863 
L 290.78663 231.010139 
L 294.804631 232.976103 
L 298.853073 234.710609 
L 302.962393 236.229815 
L 307.163031 237.546525 
L 311.515866 238.678156 
L 316.081777 239.634779 
L 320.952082 240.425929 
L 326.248539 241.057589 
L 332.184224 241.536145 
L 339.154848 241.866734 
L 348.104034 242.055255 
L 363.23242 242.115572 
L 373.581818 242.116364 
L 373.581818 242.116364 
" style="fill:none;stroke:#ffffff;stroke-linecap:square;stroke-width:1.5;"/>
   </g>
   <g id="line2d_2">
    <path clip-path="url(#pe0dd7b6c96)" d="M 69.218182 242.116364 
L 201.507847 242.005459 
L 211.765928 241.757915 
L 218.645234 241.378687 
L 223.97213 240.868616 
L 228.385844 240.227697 
L 232.19077 239.455887 
L 235.599984 238.540398 
L 238.704803 237.477412 
L 241.566108 236.264251 
L 244.244775 234.889273 
L 246.801686 233.327158 
L 249.267278 231.557658 
L 251.641551 229.578816 
L 253.954946 227.361903 
L 256.237902 224.86601 
L 258.520858 222.035365 
L 260.773374 218.88653 
L 263.056329 215.30675 
L 265.339285 211.30939 
L 267.65268 206.807549 
L 270.026954 201.691556 
L 272.462106 195.90251 
L 274.958138 189.384387 
L 277.545487 181.996914 
L 280.254595 173.580335 
L 283.146338 163.856076 
L 286.312037 152.40372 
L 289.903887 138.542873 
L 294.652434 119.251404 
L 302.657999 86.667616 
L 305.701939 75.28247 
L 308.137092 66.989157 
L 310.206972 60.689045 
L 312.002897 55.895293 
L 313.616185 52.200986 
L 315.046837 49.463903 
L 316.325293 47.484204 
L 317.451551 46.129693 
L 318.456051 45.246077 
L 319.369233 44.719701 
L 320.221537 44.474714 
L 321.043401 44.470307 
L 321.834825 44.686548 
L 322.656689 45.145035 
L 323.539432 45.908048 
L 324.483054 47.03881 
L 325.487554 48.605409 
L 326.583373 50.745711 
L 327.77051 53.575104 
L 329.048965 57.215664 
L 330.449178 61.902324 
L 331.971148 67.807775 
L 333.645315 75.242056 
L 335.47168 84.40309 
L 337.54156 95.979981 
L 339.946273 110.768802 
L 343.020653 131.177283 
L 351.300172 186.906592 
L 353.583127 200.357718 
L 355.531249 210.563352 
L 357.235856 218.364341 
L 358.788266 224.467976 
L 360.218918 229.213516 
L 361.527813 232.813002 
L 362.745389 235.540411 
L 363.902087 237.604872 
L 364.997905 239.122474 
L 366.063285 240.229696 
L 367.128664 241.020357 
L 368.224482 241.558129 
L 369.442059 241.901356 
L 370.93359 242.076802 
L 373.581818 242.116364 
L 373.581818 242.116364 
" style="fill:none;stroke:#e4d582;stroke-linecap:square;stroke-width:1.5;"/>
   </g>
   <g id="line2d_3">
    <path clip-path="url(#pe0dd7b6c96)" d="M 69.218182 242.116364 
L 180.352459 242.005469 
L 188.358023 241.756652 
L 193.745798 241.375818 
L 197.946436 240.862374 
L 201.446968 240.215893 
L 204.490909 239.432793 
L 207.230456 238.501885 
L 209.756927 237.408941 
L 212.100761 236.154061 
L 214.322838 234.713751 
L 216.453596 233.069476 
L 218.523476 231.193014 
L 220.562916 229.043408 
L 222.602357 226.56365 
L 224.611357 223.767423 
L 226.650798 220.539514 
L 228.690238 216.890162 
L 230.760118 212.727809 
L 232.890876 207.934996 
L 235.082514 202.445676 
L 237.33503 196.19699 
L 239.709304 188.938657 
L 242.205335 180.574644 
L 244.884003 170.799264 
L 247.836625 159.151625 
L 251.245839 144.757281 
L 255.933508 123.90182 
L 262.721496 93.772544 
L 265.734997 81.443808 
L 268.17015 72.381485 
L 270.240029 65.500605 
L 272.066394 60.174644 
L 273.679683 56.127065 
L 275.140774 53.043694 
L 276.449669 50.78472 
L 277.606366 49.205153 
L 278.671745 48.109936 
L 279.645806 47.419388 
L 280.528549 47.055752 
L 281.380853 46.945129 
L 282.202717 47.064925 
L 283.024581 47.408969 
L 283.907323 48.029594 
L 284.850945 48.981144 
L 285.855446 50.320535 
L 286.951264 52.162858 
L 288.168841 54.669908 
L 289.477735 57.892933 
L 290.908387 62.020406 
L 292.491236 67.287111 
L 294.256722 73.969204 
L 296.235284 82.37016 
L 298.4878 92.940749 
L 301.227346 106.925694 
L 305.093151 127.94832 
L 311.8507 164.751584 
L 314.833762 179.671643 
L 317.360232 191.205078 
L 319.612749 200.477703 
L 321.682628 208.084501 
L 323.63075 214.414472 
L 325.457115 219.615817 
L 327.192161 223.913819 
L 328.866328 227.490725 
L 330.510056 230.488582 
L 332.092906 232.92842 
L 333.675755 234.967257 
L 335.258604 236.645077 
L 336.841453 238.003366 
L 338.485181 239.120364 
L 340.189788 240.010889 
L 342.046592 240.726107 
L 344.116472 241.277392 
L 346.521185 241.678832 
L 349.534686 241.944087 
L 353.887521 242.083027 
L 364.084723 242.116313 
L 373.581818 242.116364 
L 373.581818 242.116364 
" style="fill:none;stroke:#c9ab05;stroke-linecap:square;stroke-width:1.5;"/>
   </g>
  </g>
 </g>
 <defs>
  <clipPath id="pe0dd7b6c96">
   <rect height="217.44" width="334.8" x="54" y="34.56"/>
  </clipPath>
 </defs>
</svg>
