<svg width="145" height="42" xmlns="http://www.w3.org/2000/svg" xmlns:xlink="http://www.w3.org/1999/xlink" overflow="hidden"><defs><clipPath id="clip0"><rect x="565" y="339" width="145" height="42"/></clipPath><clipPath id="clip1"><rect x="566" y="339" width="144" height="41"/></clipPath><clipPath id="clip2"><rect x="566" y="339" width="144" height="41"/></clipPath><clipPath id="clip3"><rect x="566" y="339" width="149" height="41"/></clipPath></defs><g clip-path="url(#clip0)" transform="translate(-565 -339)"><g clip-path="url(#clip1)"><g clip-path="url(#clip2)"><g clip-path="url(#clip3)"><path d="M1.83485 8.64603C1.76998 8.7109 1.71902 8.7526 1.68194 8.77113 1.64487 8.78966 1.57074 8.80356 1.45954 8.81283 1.34834 8.82211 1.1491 8.83601 0.861823 8.85454L0.403111 8.85454 0.403111 9.49395 1.87655 9.49395C2.6735 9.49395 3.12295 9.48932 3.22489 9.48005 3.32682 9.47078 3.40559 9.43835 3.46119 9.38275 3.47046 9.37348 3.95698 8.09001 4.92073 5.53235L6.36637 1.72365 7.81201 5.53235C8.77576 8.09001 9.26692 9.37348 9.28545 9.38275 9.31325 9.43835 9.38275 9.47078 9.49395 9.48005 9.60515 9.48932 10.0592 9.49395 10.8562 9.49395L12.3296 9.49395 12.3296 8.85454 11.8709 8.85454C11.5002 8.84526 11.2639 8.83136 11.162 8.81283 11.0601 8.7943 10.9767 8.7387 10.9118 8.64603L10.9118 0.847923C10.9674 0.755253 11.0462 0.699651 11.1481 0.681118 11.25 0.662585 11.491 0.648684 11.8709 0.639417L12.3296 0.639417 12.3296 0 12.1767 0C11.9821 0.0278007 11.3334 0.0417011 10.2307 0.0417011 9.01671 0.0417011 8.36802 0.0278007 8.28462 0L8.13172 0 8.13172 0.639417 8.59043 0.639417C8.97964 0.648684 9.21594 0.662585 9.29935 0.681118 9.38275 0.699651 9.47078 0.755253 9.56345 0.847923L9.56345 4.82343C9.56345 5.53698 9.56345 6.06519 9.56345 6.40807 9.56345 6.75095 9.56345 7.14479 9.56345 7.5896 9.56345 8.03441 9.56345 8.34485 9.56345 8.52093L9.54955 8.78503C7.39037 3.05808 6.29224 0.162171 6.25517 0.0973026 6.21809 0.0417011 6.12543 0.0139004 5.97716 0.0139004 5.82888 0.0139004 5.73622 0.0417011 5.69915 0.0973026 5.68988 0.115836 5.14314 1.54757 4.05891 4.39252L2.44646 8.67383 2.44646 8.42362C2.43719 8.25682 2.43256 7.96491 2.43256 7.5479 2.43256 7.13089 2.43256 6.76021 2.43256 6.43587 2.43256 6.11153 2.43256 5.61575 2.43256 4.94853L2.44646 1.19543C2.5484 0.861823 2.94225 0.676485 3.628 0.639417L3.8643 0.639417 3.8643 0 3.7392 0C3.6002 0.0278007 3.06735 0.0417011 2.14066 0.0417011 1.19543 0.0417011 0.653317 0.0278007 0.514314 0L0.403111 0 0.403111 0.639417 0.639417 0.639417C0.935958 0.65795 1.1769 0.704286 1.36224 0.778421 1.54757 0.852556 1.65877 0.912791 1.69585 0.959125 1.73292 1.00546 1.77925 1.08423 1.83485 1.19543L1.83485 8.64603Z" fill="#C9AB05" transform="matrix(1.00321 0 0 -1 566 361.994)"/><path d="M0.76452 7.04749C0.76452 7.81664 1.02863 8.46532 1.55684 8.99354 2.08506 9.52175 2.69204 9.78586 3.37779 9.78586L3.57239 9.78586C4.36009 9.78586 5.04583 9.49395 5.62965 8.91014L5.92156 9.34105C5.96789 9.40592 6.01423 9.47542 6.06056 9.54955 6.10689 9.62368 6.15323 9.68393 6.19956 9.73026L6.24127 9.78586C6.25054 9.78586 6.26907 9.78586 6.29687 9.78586 6.32467 9.78586 6.35247 9.79049 6.38027 9.79976L6.43587 9.79976C6.46367 9.79976 6.50537 9.77196 6.56097 9.71636L6.56097 6.42197 6.47757 6.33857 6.22737 6.33857C6.12543 6.33857 6.06519 6.35247 6.04666 6.38027 6.02813 6.40807 6.00496 6.50074 5.97716 6.65828 5.81963 7.82591 5.35164 8.5997 4.57322 8.97964 4.23034 9.12791 3.88283 9.20204 3.53069 9.20204 3.03955 9.20204 2.64107 9.03524 2.33526 8.70163 2.02945 8.36802 1.87655 7.97881 1.87655 7.534 1.87655 7.21892 1.95532 6.93165 2.11286 6.67218 2.27039 6.4127 2.49279 6.20419 2.78007 6.04666 2.87275 6.00959 3.27122 5.90303 3.97551 5.72695 4.6798 5.55088 5.06901 5.44432 5.14314 5.40724 5.67135 5.20337 6.10226 4.85586 6.43587 4.36472 6.76948 3.87357 6.94091 3.30366 6.95018 2.65497 6.95018 1.90435 6.70925 1.22787 6.22737 0.625517 5.74548 0.0231673 5.06436-0.28264 4.18401-0.291908 3.66507-0.291908 3.20171-0.213139 2.79397-0.0556015 2.38623 0.101936 2.10358 0.245574 1.94605 0.37531L1.69585 0.569915C1.65877 0.523581 1.58927 0.430911 1.48734 0.291908 1.3854 0.152904 1.29273 0.0231673 1.20933-0.0973026 1.12593-0.217773 1.08423-0.28264 1.08423-0.291908 1.0657-0.301175 1.01936-0.305808 0.945225-0.305808L0.889624-0.305808C0.861823-0.305808 0.820122-0.278007 0.76452-0.222406L0.76452 1.40394C0.76452 2.5067 0.769153 3.06735 0.778421 3.08588 0.796954 3.13221 0.889624 3.15538 1.05643 3.15538L1.23713 3.15538C1.29273 3.09978 1.32054 3.03955 1.32054 2.97468 1.32054 2.67814 1.36687 2.38623 1.45954 2.09896 1.55221 1.81168 1.70975 1.52904 1.93215 1.25103 2.15456 0.973026 2.46037 0.75062 2.84958 0.583815 3.23879 0.417011 3.70213 0.333609 4.23961 0.333609 4.67515 0.333609 5.05046 0.509681 5.36554 0.861823 5.68062 1.21397 5.83815 1.64487 5.83815 2.15456 5.83815 2.55304 5.73622 2.91445 5.53235 3.23879 5.32847 3.56312 5.05973 3.78553 4.72613 3.906 4.20718 4.03574 3.8643 4.12378 3.6975 4.17011 3.65117 4.17938 3.52606 4.20718 3.32219 4.25351 3.11831 4.29984 2.96541 4.33692 2.86348 4.36472 2.76154 4.39252 2.61327 4.44349 2.41866 4.51762 2.22406 4.59175 2.07115 4.67515 1.95995 4.76783 1.84875 4.8605 1.71437 4.9717 1.55684 5.10144 1.39931 5.23117 1.2742 5.39334 1.18153 5.58795 0.903524 6.04203 0.76452 6.52854 0.76452 7.04749Z" fill="#C9AB05" transform="matrix(1.00321 0 0 -1 578.788 361.994)"/><path d="M1.77925 8.60433C1.71437 8.6692 1.66342 8.7109 1.62634 8.72943 1.58927 8.74796 1.51514 8.76186 1.40394 8.77113 1.29273 8.7804 1.0935 8.7943 0.806221 8.81283L0.347509 8.81283 0.347509 9.45225 8.29852 9.45225 8.29852 9.39665C8.31705 9.34105 8.38192 8.80356 8.49312 7.78421 8.60433 6.76485 8.6692 6.22737 8.68773 6.17176L8.68773 6.11616 8.13172 6.11616 8.13172 6.17176C8.12244 6.19956 8.10854 6.29687 8.09001 6.46367 8.05294 6.78801 7.99734 7.07066 7.92321 7.31159 7.84908 7.55253 7.77031 7.76103 7.6869 7.93711 7.6035 8.11319 7.48767 8.25219 7.33939 8.35412 7.19112 8.45605 7.05212 8.53946 6.92238 8.60433 6.79265 8.6692 6.60267 8.71553 6.35247 8.74333 6.10226 8.77113 5.88913 8.78966 5.71305 8.79893 5.53698 8.8082 5.26824 8.81283 4.90683 8.81283 4.10061 8.81283 3.628 8.8082 3.48899 8.79893 3.34999 8.78966 3.26659 8.7387 3.23879 8.64603 3.23879 8.64603 3.23879 8.6414 3.23879 8.63213 3.22951 8.6136 3.22489 8.03904 3.22489 6.90848L3.22489 5.22654 3.97551 5.22654C4.65199 5.24507 5.07363 5.28677 5.24044 5.35164 5.57405 5.49992 5.75475 5.88913 5.78255 6.51927 5.78255 6.5378 5.78255 6.55634 5.78255 6.57487L5.78255 6.85288 6.33857 6.85288 6.33857 2.96078 5.78255 2.96078 5.78255 3.23879C5.77328 3.56312 5.73622 3.81797 5.67135 4.00331 5.60648 4.18864 5.49065 4.32301 5.32384 4.40642 5.15704 4.48982 4.9995 4.54079 4.85123 4.55932 4.70295 4.57785 4.46202 4.58712 4.12841 4.58712 4.06354 4.58712 4.01258 4.58712 3.97551 4.58712L3.22489 4.58712 3.22489 2.72447 3.22489 1.58464C3.22489 1.05643 3.24806 0.769153 3.29439 0.722819 3.34999 0.676485 3.59092 0.653317 4.01721 0.653317L4.72613 0.653317 5.43504 0.653317C5.77792 0.653317 6.06056 0.667218 6.28297 0.695018 6.50537 0.722819 6.75095 0.778421 7.01969 0.861823 7.28842 0.945225 7.5062 1.08423 7.673 1.27883 7.83981 1.47344 7.98808 1.72365 8.11782 2.02945 8.21049 2.27039 8.27999 2.5206 8.32632 2.78007 8.37265 3.03955 8.40972 3.25731 8.43752 3.43339 8.46532 3.60947 8.4885 3.71603 8.50703 3.7531L8.50703 3.7948 9.06304 3.7948 9.06304 3.7531C9.05377 3.7253 8.96111 3.10905 8.78503 1.90435 8.60896 0.699651 8.50703 0.0787688 8.47923 0.0417011L8.47923 0 0.347509 0 0.347509 0.639417 0.806221 0.639417C1.19543 0.648684 1.43174 0.662585 1.51514 0.681118 1.59854 0.699651 1.68657 0.755253 1.77925 0.847923L1.77925 8.60433Z" fill="#C9AB05" transform="matrix(1.00321 0 0 -1 586.555 361.994)"/><path d="M0.778421 4.82343C0.778421 4.9439 0.843289 5.03656 0.973026 5.10144L9.82756 5.10144C9.96656 5.0273 10.0361 4.93463 10.0361 4.82343 10.0361 4.7215 9.97119 4.63345 9.84146 4.55932L5.42114 4.54542 1.00083 4.54542C0.852556 4.59175 0.778421 4.68442 0.778421 4.82343ZM0.778421 2.12676C0.778421 2.26576 0.852556 2.35843 1.00083 2.40476L9.84146 2.40476C9.97119 2.31209 10.0361 2.21943 10.0361 2.12676 10.0361 2.00628 9.96656 1.91362 9.82756 1.84875L0.973026 1.84875C0.843289 1.91362 0.778421 2.00628 0.778421 2.12676Z" fill="#C9AB05" transform="matrix(1.00321 0 0 -1 599.928 361.994)"/><path d="M0 3.05808 10.0083 3.05808 10.0083 3.8921 0 3.8921Z" fill="#C9AB05" transform="matrix(1.00321 0 0 -1 616.327 361.994)"/><path d="M2.96078 8.03441 2.78007 7.96491C2.65034 7.91858 2.46499 7.87224 2.22406 7.82591 1.98312 7.77958 1.71437 7.74713 1.41784 7.7286L1.15373 7.7286 1.15373 8.36802 1.41784 8.36802C1.85338 8.38655 2.25649 8.45605 2.62717 8.57653 2.99785 8.697 3.25731 8.8082 3.40559 8.91014 3.55387 9.01207 3.6836 9.11401 3.7948 9.21594 3.81333 9.24374 3.86893 9.25765 3.96161 9.25765 4.04501 9.25765 4.12378 9.22985 4.19791 9.17424L4.19791 5.01803 4.21181 0.847923C4.27668 0.783054 4.33229 0.741353 4.37862 0.722819 4.42495 0.704286 4.53615 0.685751 4.71222 0.667218 4.8883 0.648684 5.17557 0.639417 5.57405 0.639417L5.93546 0.639417 5.93546 0 5.78255 0C5.58795 0.0278007 4.85123 0.0417011 3.57239 0.0417011 2.31209 0.0417011 1.58464 0.0278007 1.39004 0L1.22323 0 1.22323 0.639417 1.58464 0.639417C1.78852 0.639417 1.96458 0.639417 2.11286 0.639417 2.26113 0.639417 2.37696 0.64405 2.46037 0.653317 2.54377 0.662585 2.6179 0.676485 2.68277 0.695018 2.74764 0.713552 2.7847 0.722819 2.79397 0.722819 2.80325 0.722819 2.83105 0.745987 2.87738 0.792321 2.92371 0.838655 2.95151 0.85719 2.96078 0.847923L2.96078 8.03441Z" fill="#C9AB05" transform="matrix(1.00321 0 0 -1 617.861 352.598)"/><path d="M0.291908 3.98941C0.301175 4.04501 0.315075 4.11914 0.333609 4.21181 0.352142 4.30449 0.407744 4.48055 0.500413 4.74003 0.593083 4.9995 0.685751 5.21727 0.778421 5.39334 0.87109 5.56942 1.02399 5.74085 1.23713 5.90766 1.45027 6.07446 1.66342 6.15323 1.87655 6.14396 2.21016 6.14396 2.48817 6.06056 2.71057 5.89376 2.93298 5.72695 3.07198 5.56942 3.12758 5.42114 3.18318 5.27287 3.21099 5.17557 3.21099 5.12924 3.21099 5.11071 3.21561 5.10144 3.22489 5.10144L3.37779 5.25434C3.94308 5.84743 4.58712 6.14396 5.30994 6.14396 5.81035 6.14396 6.21346 6.01886 6.51927 5.76865 6.82508 5.51845 6.98261 5.15241 6.99189 4.67052 7.00116 4.18864 6.82508 3.46119 6.46367 2.48817 6.10226 1.51514 5.92619 0.926692 5.93546 0.722819 5.93546 0.48188 6.01423 0.36141 6.17176 0.36141 6.22737 0.36141 6.26907 0.366043 6.29687 0.37531 6.5656 0.421644 6.80655 0.597716 7.01969 0.903524 7.23282 1.20933 7.395 1.58001 7.5062 2.01555 7.52473 2.08968 7.6174 2.12676 7.78421 2.12676 7.96954 2.12676 8.06221 2.08968 8.06221 2.01555 8.06221 2.00628 8.04368 1.93678 8.00661 1.80705 7.93248 1.53831 7.83054 1.2742 7.7008 1.01473 7.57107 0.755253 7.35792 0.49578 7.06139 0.236306 6.76485-0.0231673 6.44514-0.148271 6.10226-0.139004 5.66672-0.139004 5.35164-0.0139004 5.15704 0.236306 4.96243 0.486513 4.86513 0.745987 4.86513 1.01473 4.86513 1.1908 5.03193 1.74682 5.36554 2.68277 5.69915 3.61872 5.87058 4.32301 5.87986 4.79563 5.87986 5.34237 5.67598 5.61575 5.26824 5.61575L5.19874 5.61575C4.40179 5.61575 3.72993 5.14777 3.18318 4.21181L3.08588 4.04501 2.62717 2.18236C2.32136 0.968393 2.14529 0.315075 2.09896 0.222406 1.97848-0.0278007 1.77925-0.152904 1.50124-0.152904 1.38077-0.152904 1.28347-0.125103 1.20933-0.0695018 1.1352-0.0139004 1.08423 0.0417011 1.05643 0.0973026 1.02863 0.152904 1.01936 0.199238 1.02863 0.236306 1.02863 0.356777 1.2047 1.11203 1.55684 2.50207 1.90898 3.8921 2.09433 4.64735 2.11286 4.76783 2.12213 4.81416 2.12676 4.92073 2.12676 5.08753 2.12676 5.44894 2.01555 5.62965 1.79315 5.62965 1.44101 5.62965 1.1491 5.16631 0.917424 4.23961 0.861823 4.05428 0.834022 3.95698 0.834022 3.9477 0.815489 3.8921 0.727452 3.8643 0.569915 3.8643L0.37531 3.8643C0.319708 3.9199 0.291908 3.96161 0.291908 3.98941Z" fill="#C9AB05" transform="matrix(1.00321 0 0 -1 617.164 371.53)"/><path d="M0.834022 13.1775C0.861823 13.1961 3.66507 13.2053 9.24374 13.2053L17.6118 13.2053 18.418 11.3288C18.9647 10.05 19.2566 9.37348 19.2937 9.29935L18.7377 9.29935 18.6404 9.49395C18.4458 9.87389 18.1863 10.2353 17.862 10.5782 17.3987 11.023 16.8844 11.3798 16.319 11.6485 15.7537 11.9172 15.1004 12.1165 14.3591 12.2462 13.6177 12.376 12.9181 12.4547 12.2601 12.4825 11.6022 12.5103 10.7543 12.5289 9.71636 12.5381L7.97881 12.5381 7.5479 12.5381 3.48899 12.5381 3.6002 12.3852C7.89078 6.51927 10.0453 3.55849 10.0639 3.50289 10.0731 3.48436 10.0731 3.45656 10.0639 3.41949 10.0361 3.39169 8.81283 1.99238 6.39417-0.778421L2.72447-4.94853C2.72447-4.9578 3.70213-4.96243 5.65745-4.96243 6.13933-4.96243 6.79265-4.96243 7.6174-4.96243 8.44215-4.96243 9.03524-4.96706 9.39665-4.97633 10.657-4.97633 11.6763-4.95316 12.4547-4.90683 13.2332-4.8605 14.007-4.7632 14.7761-4.61492 15.5452-4.46665 16.1985-4.23961 16.736-3.9338 17.2736-3.628 17.7508-3.22489 18.1678-2.72447 18.3624-2.48354 18.5524-2.14993 18.7377-1.72365L19.2937-1.72365C19.2937-1.73292 19.2613-1.83022 19.1964-2.01555 19.1315-2.20089 19.0157-2.50207 18.8489-2.91908 18.6821-3.33609 18.5385-3.7253 18.418-4.08671L17.6118-6.24127 9.25765-6.25517C3.67897-6.25517 0.875723-6.24589 0.847923-6.22737 0.792321-6.20884 0.76452-6.16713 0.76452-6.10226 0.76452-6.08373 0.773788-6.05593 0.792321-6.01886L8.20122 2.46037C8.20122 2.46964 8.04831 2.67814 7.74251 3.08588 7.4367 3.49362 6.95018 4.16084 6.28297 5.08753 5.61575 6.01423 5.0134 6.83898 4.47592 7.5618L0.778421 12.6354 0.76452 12.8439C0.76452 13.0385 0.787688 13.1497 0.834022 13.1775Z" fill="#C9AB05" transform="matrix(1.00321 0 0 -1 630.37 361.994)"/><path d="M1.80827 5.89654C1.80827 6.05378 1.87051 6.19136 1.99499 6.30929 2.11948 6.42722 2.26361 6.48946 2.42741 6.49602 2.54534 6.49602 2.64361 6.45671 2.72223 6.37809 2.80085 6.29947 2.84344 6.20119 2.84999 6.08326 2.84999 5.93257 2.78447 5.79499 2.65344 5.6705 2.52241 5.54602 2.37827 5.48051 2.22103 5.47395 2.12275 5.47395 2.03103 5.50671 1.94586 5.57223 1.86068 5.63775 1.81483 5.74585 1.80827 5.89654ZM0.206379 2.82051C0.206379 2.87292 0.235861 2.97448 0.294827 3.12516 0.353792 3.27585 0.432413 3.44292 0.530688 3.62637 0.628964 3.80982 0.773102 3.97689 0.963101 4.12758 1.1531 4.27826 1.34965 4.35034 1.55275 4.34378 1.80827 4.34378 2.0212 4.26843 2.19155 4.11775 2.36189 3.96706 2.45034 3.76396 2.45689 3.50844 2.45689 3.39706 2.41102 3.21361 2.3193 2.9581 2.22758 2.70258 2.09654 2.35861 1.9262 1.9262 1.75586 1.49379 1.61828 1.12361 1.51344 0.815688 1.48069 0.67155 1.46431 0.566723 1.46431 0.501206 1.46431 0.337413 1.52 0.255517 1.63138 0.255517 1.69034 0.255517 1.75258 0.265344 1.8181 0.284999 1.88362 0.304654 1.95896 0.350517 2.04413 0.422585 2.12931 0.494654 2.21776 0.609309 2.30948 0.76655 2.4012 0.923791 2.4831 1.11707 2.55517 1.34638 2.57482 1.425 2.5912 1.47086 2.6043 1.48396 2.6174 1.49706 2.6731 1.50362 2.77137 1.50362 2.9024 1.50362 2.96792 1.47086 2.96792 1.40534 2.96792 1.35293 2.93844 1.25137 2.87948 1.10069 2.82051 0.949998 2.73862 0.782929 2.63379 0.599481 2.52896 0.416033 2.38154 0.252241 2.19155 0.108103 2.00155-0.0360344 1.79844-0.108103 1.58224-0.108103 1.37259-0.108103 1.17931-0.0393102 1.00241 0.0982756 0.825515 0.235861 0.733792 0.445516 0.727239 0.727239 0.727239 0.838618 0.743619 0.943446 0.776377 1.04172 0.809135 1.14 0.949998 1.51344 1.19896 2.16206 1.44792 2.82378 1.59206 3.22017 1.63138 3.3512 1.67069 3.48223 1.69361 3.60999 1.70017 3.73447 1.70017 3.89171 1.64448 3.97033 1.5331 3.97033L1.51344 3.97033C1.31689 3.97033 1.13672 3.86223 0.972929 3.64602 0.809135 3.42982 0.684654 3.15465 0.599481 2.82051 0.592929 2.81396 0.586378 2.80413 0.579826 2.79103 0.573274 2.77793 0.569999 2.7681 0.569999 2.76154 0.569999 2.75499 0.563447 2.74844 0.550343 2.74189 0.53724 2.73533 0.527413 2.73206 0.520861 2.73206 0.514309 2.73206 0.501206 2.73206 0.48155 2.73206 0.461895 2.73206 0.435688 2.73206 0.40293 2.73206L0.265344 2.73206C0.226034 2.77137 0.206379 2.80085 0.206379 2.82051Z" fill="#C9AB05" transform="matrix(1.00321 0 0 -1 632.42 377.146)"/><path d="M0.550343 3.41016C0.550343 3.49534 0.596206 3.56085 0.687929 3.60671L6.94809 3.60671C7.04636 3.5543 7.0955 3.48878 7.0955 3.41016 7.0955 3.3381 7.04963 3.27585 6.95791 3.22344L3.83275 3.21361 0.707584 3.21361C0.602757 3.24637 0.550343 3.31189 0.550343 3.41016ZM0.550343 1.50362C0.550343 1.60189 0.602757 1.66741 0.707584 1.70017L6.95791 1.70017C7.04963 1.63465 7.0955 1.56914 7.0955 1.50362 7.0955 1.41844 7.04636 1.35293 6.94809 1.30707L0.687929 1.30707C0.596206 1.35293 0.550343 1.41844 0.550343 1.50362Z" fill="#C9AB05" transform="matrix(1.00321 0 0 -1 635.821 377.146)"/><path d="M2.09327 5.68033 1.96551 5.63119C1.87379 5.59844 1.74275 5.56567 1.57241 5.53292 1.40207 5.50016 1.21206 5.47722 1.00241 5.46412L0.815688 5.46412 0.815688 5.91619 1.00241 5.91619C1.31034 5.92929 1.59534 5.97843 1.85741 6.0636 2.11948 6.14878 2.30292 6.2274 2.40775 6.29947 2.51258 6.37153 2.6043 6.44361 2.68292 6.51567 2.69602 6.53533 2.73533 6.54516 2.80085 6.54516 2.85982 6.54516 2.91551 6.5255 2.96792 6.48619L2.96792 3.54775 2.97775 0.599481C3.02362 0.553619 3.06293 0.524136 3.09568 0.511033 3.12844 0.49793 3.20706 0.484826 3.33154 0.471723 3.45603 0.45862 3.65913 0.452068 3.94085 0.452068L4.19637 0.452068 4.19637 0 4.08827 0C3.95068 0.0196551 3.42982 0.0294827 2.52568 0.0294827 1.63465 0.0294827 1.12034 0.0196551 0.982756 0L0.864825 0 0.864825 0.452068 1.12034 0.452068C1.26448 0.452068 1.38896 0.452068 1.49379 0.452068 1.59862 0.452068 1.68051 0.455343 1.73948 0.461895 1.79844 0.468447 1.85085 0.478275 1.89672 0.491378 1.94258 0.504481 1.96878 0.511033 1.97534 0.511033 1.98189 0.511033 2.00155 0.527413 2.03431 0.560171 2.06706 0.592929 2.08672 0.606033 2.09327 0.599481L2.09327 5.68033Z" fill="#C9AB05" transform="matrix(1.00321 0 0 -1 643.502 377.146)"/><path d="M0.206379 2.82051C0.212931 2.85982 0.222758 2.91223 0.235861 2.97775 0.248965 3.04327 0.288275 3.16775 0.353792 3.3512 0.41931 3.53465 0.484826 3.68861 0.550343 3.81309 0.615861 3.93758 0.723964 4.05878 0.874653 4.17671 1.02534 4.29464 1.17603 4.35034 1.32672 4.34378 1.56258 4.34378 1.75913 4.28482 1.91637 4.16689 2.07362 4.04895 2.17189 3.93758 2.2112 3.83275 2.25051 3.72792 2.27017 3.65913 2.27017 3.62637 2.27017 3.61327 2.27344 3.60671 2.27999 3.60671L2.3881 3.71482C2.78775 4.13413 3.2431 4.34378 3.75413 4.34378 4.10792 4.34378 4.39292 4.25533 4.60913 4.07844 4.82533 3.90154 4.93671 3.64275 4.94326 3.30206 4.94982 2.96137 4.82533 2.44706 4.56982 1.75913 4.3143 1.0712 4.18981 0.655171 4.19637 0.511033 4.19637 0.340689 4.25206 0.255517 4.36344 0.255517 4.40275 0.255517 4.43223 0.258792 4.45189 0.265344 4.64188 0.298102 4.81223 0.422585 4.96292 0.638791 5.1136 0.854998 5.22826 1.11707 5.30688 1.425 5.31998 1.47741 5.3855 1.50362 5.50343 1.50362 5.63446 1.50362 5.69999 1.47741 5.69999 1.425 5.69999 1.41844 5.68688 1.3693 5.66068 1.27758 5.60826 1.08759 5.53619 0.90086 5.44447 0.717412 5.35275 0.533964 5.20205 0.350517 4.9924 0.167069 4.78275-0.0163793 4.55672-0.104828 4.3143-0.0982756 4.00637-0.0982756 3.78361-0.00982756 3.64602 0.167069 3.50844 0.343965 3.43965 0.527413 3.43965 0.717412 3.43965 0.841895 3.55758 1.235 3.79344 1.89672 4.0293 2.55844 4.1505 3.05637 4.15706 3.39051 4.15706 3.77706 4.01292 3.97033 3.72465 3.97033L3.67551 3.97033C3.11206 3.97033 2.63706 3.63947 2.25051 2.97775L2.18172 2.85982 1.85741 1.54293C1.6412 0.684654 1.51672 0.222758 1.48396 0.157241 1.39879-0.0196551 1.25793-0.108103 1.06138-0.108103 0.976204-0.108103 0.907411-0.088448 0.854998-0.0491378 0.802584-0.00982756 0.76655 0.0294827 0.746895 0.0687929 0.727239 0.108103 0.720687 0.140861 0.727239 0.167069 0.727239 0.252241 0.851722 0.786205 1.10069 1.76896 1.34965 2.75172 1.48069 3.28568 1.49379 3.37085 1.50034 3.40361 1.50362 3.47896 1.50362 3.59689 1.50362 3.8524 1.425 3.98016 1.26776 3.98016 1.01879 3.98016 0.812412 3.65258 0.648619 2.99741 0.609309 2.86637 0.589654 2.79758 0.589654 2.79103 0.576551 2.75172 0.514309 2.73206 0.40293 2.73206L0.265344 2.73206C0.226034 2.77137 0.206379 2.80085 0.206379 2.82051Z" fill="#C9AB05" transform="matrix(1.00321 0 0 -1 637.478 346.005)"/><path d="M1.30663 3.47509C1.30663 4.11451 1.35297 4.7215 1.44564 5.29604 1.53831 5.87058 1.64487 6.36637 1.76535 6.78338 1.88582 7.20039 2.05725 7.60813 2.27966 8.00661 2.50207 8.40509 2.67814 8.71553 2.80787 8.93794 2.93761 9.16034 3.13221 9.40128 3.39169 9.66076 3.65117 9.92023 3.80407 10.0778 3.8504 10.1334 3.89673 10.189 4.01258 10.2863 4.19791 10.4253L4.37862 10.4253 4.43422 10.4253C4.56395 10.4253 4.62882 10.3836 4.62882 10.3002 4.62882 10.2724 4.55005 10.1751 4.39252 10.0083 4.23498 9.84146 4.04501 9.59588 3.8226 9.27155 3.6002 8.94721 3.37316 8.54873 3.14148 8.07611 2.90981 7.6035 2.7152 6.96408 2.55767 6.15786 2.40014 5.35164 2.32136 4.45739 2.32136 3.47509 2.32136 2.49279 2.40014 1.60317 2.55767 0.806221 2.7152 0.00926692 2.90518-0.634784 3.12758-1.12593 3.34999-1.61707 3.57702-2.01555 3.8087-2.32136 4.04038-2.62717 4.23498-2.87275 4.39252-3.05808 4.55005-3.24341 4.62882-3.34072 4.62882-3.34999 4.62882-3.43339 4.55932-3.47509 4.42032-3.47509L4.37862-3.47509 4.19791-3.47509 3.8087-3.14148C2.93761-2.35379 2.30283-1.3715 1.90435-0.194605 1.50587 0.982293 1.30663 2.20553 1.30663 3.47509Z" fill="#C9AB05" transform="matrix(1.00321 0 0 -1 650.521 361.994)"/><path d="M0.917424 8.85454C0.806221 8.85454 0.727452 8.85454 0.681118 8.85454 0.634784 8.85454 0.588448 8.85916 0.542114 8.86843 0.49578 8.87771 0.463345 8.89161 0.444812 8.91014 0.426278 8.92867 0.417011 8.95647 0.417011 8.99354 0.417011 9.03061 0.430911 9.10937 0.458712 9.22985 0.486513 9.35032 0.528214 9.43372 0.583815 9.48005 0.602349 9.48932 0.667218 9.49395 0.778421 9.49395 1.22323 9.46615 1.72827 9.45225 2.29356 9.45225 3.43339 9.45225 4.08671 9.46615 4.25351 9.49395L4.39252 9.49395C4.44812 9.43835 4.47592 9.39665 4.47592 9.36885 4.47592 9.34105 4.46665 9.25765 4.44812 9.11864 4.41105 8.99817 4.36472 8.91014 4.30911 8.85454L4.14231 8.85454C3.62337 8.85454 3.36389 8.7943 3.36389 8.67383 3.36389 8.6275 3.59557 7.94638 4.05891 6.63048 4.52225 5.31457 4.75855 4.64735 4.76783 4.62882L4.80953 4.67052C4.8466 4.7076 4.9022 4.76783 4.97633 4.85123 5.05046 4.93463 5.14777 5.04583 5.26824 5.18484 5.38871 5.32384 5.53698 5.49527 5.71305 5.69915 5.88913 5.90303 6.08836 6.13933 6.31077 6.40807 7.16332 7.39962 7.6591 7.98344 7.79811 8.15952 7.93711 8.33559 8.01124 8.47923 8.02051 8.59043 8.02051 8.7387 7.87224 8.82673 7.5757 8.85454 7.41817 8.85454 7.33939 8.90086 7.33939 8.99354 7.33939 9.01207 7.34867 9.07694 7.3672 9.18814 7.395 9.32715 7.41817 9.41055 7.4367 9.43835 7.45523 9.46615 7.5201 9.48468 7.6313 9.49395 7.64983 9.49395 7.78421 9.48932 8.03441 9.48005 8.28462 9.47078 8.65066 9.46152 9.13254 9.45225 9.38275 9.45225 9.64223 9.45688 9.91096 9.46615 10.1797 9.47542 10.3326 9.48005 10.3697 9.48005 10.5272 9.48005 10.606 9.43835 10.606 9.35495 10.606 9.31788 10.5921 9.24374 10.5643 9.13254 10.5365 9.02134 10.5133 8.95647 10.4948 8.93794 10.4762 8.88234 10.3789 8.85454 10.2029 8.85454 9.53565 8.8082 8.99354 8.57653 8.57653 8.15952 8.49312 8.07611 7.84444 7.32087 6.63048 5.89376L4.83733 3.7948 4.47592 2.34916C4.22571 1.3576 4.10061 0.838655 4.10061 0.792321 4.10061 0.690385 4.41569 0.639417 5.04583 0.639417 5.19411 0.639417 5.29141 0.634784 5.33774 0.625517 5.38407 0.616249 5.41187 0.569915 5.42114 0.486513 5.42114 0.46798 5.41187 0.412378 5.39334 0.319708 5.35627 0.162171 5.32847 0.0741353 5.30994 0.0556015 5.29141 0.0370677 5.21727 0.0231673 5.08753 0.0139004 5.0412 0.0139004 4.8466 0.0139004 4.50372 0.0139004 4.16084 0.0139004 3.73457 0.0185338 3.22489 0.0278007 2.65034 0.0278007 2.21479 0.0278007 1.91825 0.0278007 1.62171 0.0278007 1.45491 0.0231673 1.41784 0.0139004 1.25103 0.0139004 1.16763 0.0509681 1.16763 0.125103 1.16763 0.171437 1.18153 0.240939 1.20933 0.333609 1.2186 0.36141 1.22787 0.38921 1.23713 0.417011 1.2464 0.444812 1.25103 0.46798 1.25103 0.486513 1.25103 0.505046 1.25567 0.523581 1.26493 0.542114 1.2742 0.560648 1.28347 0.574548 1.29273 0.583815 1.302 0.593083 1.3159 0.602349 1.33444 0.611616 1.35297 0.620884 1.37614 0.625517 1.40394 0.625517 1.43174 0.625517 1.45954 0.625517 1.48734 0.625517 1.51514 0.625517 1.55684 0.63015 1.61244 0.639417 1.66804 0.648684 1.72827 0.648684 1.79315 0.639417 2.15456 0.648684 2.39086 0.667218 2.50207 0.695018 2.61327 0.722819 2.69667 0.783054 2.75227 0.875723 2.78007 0.922057 2.91445 1.42247 3.15538 2.37696L3.50289 3.8087 1.79315 8.65993C1.78388 8.6692 1.77462 8.67846 1.76535 8.68773 1.75608 8.697 1.74682 8.70626 1.73755 8.71553 1.72827 8.7248 1.71437 8.73406 1.69585 8.74333 1.67732 8.7526 1.65877 8.76186 1.64024 8.77113 1.62171 8.7804 1.59854 8.78966 1.57074 8.79893 1.54294 8.8082 1.50587 8.81283 1.45954 8.81283 1.41321 8.81283 1.3715 8.81746 1.33444 8.82673 1.29737 8.83601 1.23713 8.84063 1.15373 8.84063 1.07033 8.84063 0.991559 8.84526 0.917424 8.85454Z" fill="#C9AB05" transform="matrix(1.00321 0 0 -1 655.945 361.994)"/><path d="M1.80827 5.89654C1.80827 6.05378 1.87051 6.19136 1.99499 6.30929 2.11948 6.42722 2.26361 6.48946 2.42741 6.49602 2.54534 6.49602 2.64361 6.45671 2.72223 6.37809 2.80085 6.29947 2.84344 6.20119 2.84999 6.08326 2.84999 5.93257 2.78447 5.79499 2.65344 5.6705 2.52241 5.54602 2.37827 5.48051 2.22103 5.47395 2.12275 5.47395 2.03103 5.50671 1.94586 5.57223 1.86068 5.63775 1.81483 5.74585 1.80827 5.89654ZM0.206379 2.82051C0.206379 2.87292 0.235861 2.97448 0.294827 3.12516 0.353792 3.27585 0.432413 3.44292 0.530688 3.62637 0.628964 3.80982 0.773102 3.97689 0.963101 4.12758 1.1531 4.27826 1.34965 4.35034 1.55275 4.34378 1.80827 4.34378 2.0212 4.26843 2.19155 4.11775 2.36189 3.96706 2.45034 3.76396 2.45689 3.50844 2.45689 3.39706 2.41102 3.21361 2.3193 2.9581 2.22758 2.70258 2.09654 2.35861 1.9262 1.9262 1.75586 1.49379 1.61828 1.12361 1.51344 0.815688 1.48069 0.67155 1.46431 0.566723 1.46431 0.501206 1.46431 0.337413 1.52 0.255517 1.63138 0.255517 1.69034 0.255517 1.75258 0.265344 1.8181 0.284999 1.88362 0.304654 1.95896 0.350517 2.04413 0.422585 2.12931 0.494654 2.21776 0.609309 2.30948 0.76655 2.4012 0.923791 2.4831 1.11707 2.55517 1.34638 2.57482 1.425 2.5912 1.47086 2.6043 1.48396 2.6174 1.49706 2.6731 1.50362 2.77137 1.50362 2.9024 1.50362 2.96792 1.47086 2.96792 1.40534 2.96792 1.35293 2.93844 1.25137 2.87948 1.10069 2.82051 0.949998 2.73862 0.782929 2.63379 0.599481 2.52896 0.416033 2.38154 0.252241 2.19155 0.108103 2.00155-0.0360344 1.79844-0.108103 1.58224-0.108103 1.37259-0.108103 1.17931-0.0393102 1.00241 0.0982756 0.825515 0.235861 0.733792 0.445516 0.727239 0.727239 0.727239 0.838618 0.743619 0.943446 0.776377 1.04172 0.809135 1.14 0.949998 1.51344 1.19896 2.16206 1.44792 2.82378 1.59206 3.22017 1.63138 3.3512 1.67069 3.48223 1.69361 3.60999 1.70017 3.73447 1.70017 3.89171 1.64448 3.97033 1.5331 3.97033L1.51344 3.97033C1.31689 3.97033 1.13672 3.86223 0.972929 3.64602 0.809135 3.42982 0.684654 3.15465 0.599481 2.82051 0.592929 2.81396 0.586378 2.80413 0.579826 2.79103 0.573274 2.77793 0.569999 2.7681 0.569999 2.76154 0.569999 2.75499 0.563447 2.74844 0.550343 2.74189 0.53724 2.73533 0.527413 2.73206 0.520861 2.73206 0.514309 2.73206 0.501206 2.73206 0.48155 2.73206 0.461895 2.73206 0.435688 2.73206 0.40293 2.73206L0.265344 2.73206C0.226034 2.77137 0.206379 2.80085 0.206379 2.82051Z" fill="#C9AB05" transform="matrix(1.00321 0 0 -1 664.049 364.088)"/><path d="M1.16763 3.29439C1.16763 3.29439 1.16763 3.35462 1.16763 3.47509 1.16763 3.59557 1.2325 3.68823 1.36224 3.7531L9.43835 3.7531C9.57735 3.67897 9.64686 3.5863 9.64686 3.47509 9.64686 3.36389 9.57735 3.27122 9.43835 3.19708L1.36224 3.19708C1.2325 3.26196 1.16763 3.35462 1.16763 3.47509Z" fill="#C9AB05" transform="matrix(1.00321 0 0 -1 671.954 361.994)"/><path d="M0.917424 8.85454C0.806221 8.85454 0.727452 8.85454 0.681118 8.85454 0.634784 8.85454 0.588448 8.85916 0.542114 8.86843 0.49578 8.87771 0.463345 8.89161 0.444812 8.91014 0.426278 8.92867 0.417011 8.95647 0.417011 8.99354 0.417011 9.03061 0.430911 9.10937 0.458712 9.22985 0.486513 9.35032 0.528214 9.43372 0.583815 9.48005 0.602349 9.48932 0.667218 9.49395 0.778421 9.49395 1.22323 9.46615 1.72827 9.45225 2.29356 9.45225 3.43339 9.45225 4.08671 9.46615 4.25351 9.49395L4.39252 9.49395C4.44812 9.43835 4.47592 9.39665 4.47592 9.36885 4.47592 9.34105 4.46665 9.25765 4.44812 9.11864 4.41105 8.99817 4.36472 8.91014 4.30911 8.85454L4.14231 8.85454C3.62337 8.85454 3.36389 8.7943 3.36389 8.67383 3.36389 8.6275 3.59557 7.94638 4.05891 6.63048 4.52225 5.31457 4.75855 4.64735 4.76783 4.62882L4.80953 4.67052C4.8466 4.7076 4.9022 4.76783 4.97633 4.85123 5.05046 4.93463 5.14777 5.04583 5.26824 5.18484 5.38871 5.32384 5.53698 5.49527 5.71305 5.69915 5.88913 5.90303 6.08836 6.13933 6.31077 6.40807 7.16332 7.39962 7.6591 7.98344 7.79811 8.15952 7.93711 8.33559 8.01124 8.47923 8.02051 8.59043 8.02051 8.7387 7.87224 8.82673 7.5757 8.85454 7.41817 8.85454 7.33939 8.90086 7.33939 8.99354 7.33939 9.01207 7.34867 9.07694 7.3672 9.18814 7.395 9.32715 7.41817 9.41055 7.4367 9.43835 7.45523 9.46615 7.5201 9.48468 7.6313 9.49395 7.64983 9.49395 7.78421 9.48932 8.03441 9.48005 8.28462 9.47078 8.65066 9.46152 9.13254 9.45225 9.38275 9.45225 9.64223 9.45688 9.91096 9.46615 10.1797 9.47542 10.3326 9.48005 10.3697 9.48005 10.5272 9.48005 10.606 9.43835 10.606 9.35495 10.606 9.31788 10.5921 9.24374 10.5643 9.13254 10.5365 9.02134 10.5133 8.95647 10.4948 8.93794 10.4762 8.88234 10.3789 8.85454 10.2029 8.85454 9.53565 8.8082 8.99354 8.57653 8.57653 8.15952 8.49312 8.07611 7.84444 7.32087 6.63048 5.89376L4.83733 3.7948 4.47592 2.34916C4.22571 1.3576 4.10061 0.838655 4.10061 0.792321 4.10061 0.690385 4.41569 0.639417 5.04583 0.639417 5.19411 0.639417 5.29141 0.634784 5.33774 0.625517 5.38407 0.616249 5.41187 0.569915 5.42114 0.486513 5.42114 0.46798 5.41187 0.412378 5.39334 0.319708 5.35627 0.162171 5.32847 0.0741353 5.30994 0.0556015 5.29141 0.0370677 5.21727 0.0231673 5.08753 0.0139004 5.0412 0.0139004 4.8466 0.0139004 4.50372 0.0139004 4.16084 0.0139004 3.73457 0.0185338 3.22489 0.0278007 2.65034 0.0278007 2.21479 0.0278007 1.91825 0.0278007 1.62171 0.0278007 1.45491 0.0231673 1.41784 0.0139004 1.25103 0.0139004 1.16763 0.0509681 1.16763 0.125103 1.16763 0.171437 1.18153 0.240939 1.20933 0.333609 1.2186 0.36141 1.22787 0.38921 1.23713 0.417011 1.2464 0.444812 1.25103 0.46798 1.25103 0.486513 1.25103 0.505046 1.25567 0.523581 1.26493 0.542114 1.2742 0.560648 1.28347 0.574548 1.29273 0.583815 1.302 0.593083 1.3159 0.602349 1.33444 0.611616 1.35297 0.620884 1.37614 0.625517 1.40394 0.625517 1.43174 0.625517 1.45954 0.625517 1.48734 0.625517 1.51514 0.625517 1.55684 0.63015 1.61244 0.639417 1.66804 0.648684 1.72827 0.648684 1.79315 0.639417 2.15456 0.648684 2.39086 0.667218 2.50207 0.695018 2.61327 0.722819 2.69667 0.783054 2.75227 0.875723 2.78007 0.922057 2.91445 1.42247 3.15538 2.37696L3.50289 3.8087 1.79315 8.65993C1.78388 8.6692 1.77462 8.67846 1.76535 8.68773 1.75608 8.697 1.74682 8.70626 1.73755 8.71553 1.72827 8.7248 1.71437 8.73406 1.69585 8.74333 1.67732 8.7526 1.65877 8.76186 1.64024 8.77113 1.62171 8.7804 1.59854 8.78966 1.57074 8.79893 1.54294 8.8082 1.50587 8.81283 1.45954 8.81283 1.41321 8.81283 1.3715 8.81746 1.33444 8.82673 1.29737 8.83601 1.23713 8.84063 1.15373 8.84063 1.07033 8.84063 0.991559 8.84526 0.917424 8.85454Z" fill="#C9AB05" transform="matrix(1.00321 0 0 -1 685.913 361.994)"/><path d="M1.80827 5.89654C1.80827 6.05378 1.87051 6.19136 1.99499 6.30929 2.11948 6.42722 2.26361 6.48946 2.42741 6.49602 2.54534 6.49602 2.64361 6.45671 2.72223 6.37809 2.80085 6.29947 2.84344 6.20119 2.84999 6.08326 2.84999 5.93257 2.78447 5.79499 2.65344 5.6705 2.52241 5.54602 2.37827 5.48051 2.22103 5.47395 2.12275 5.47395 2.03103 5.50671 1.94586 5.57223 1.86068 5.63775 1.81483 5.74585 1.80827 5.89654ZM0.206379 2.82051C0.206379 2.87292 0.235861 2.97448 0.294827 3.12516 0.353792 3.27585 0.432413 3.44292 0.530688 3.62637 0.628964 3.80982 0.773102 3.97689 0.963101 4.12758 1.1531 4.27826 1.34965 4.35034 1.55275 4.34378 1.80827 4.34378 2.0212 4.26843 2.19155 4.11775 2.36189 3.96706 2.45034 3.76396 2.45689 3.50844 2.45689 3.39706 2.41102 3.21361 2.3193 2.9581 2.22758 2.70258 2.09654 2.35861 1.9262 1.9262 1.75586 1.49379 1.61828 1.12361 1.51344 0.815688 1.48069 0.67155 1.46431 0.566723 1.46431 0.501206 1.46431 0.337413 1.52 0.255517 1.63138 0.255517 1.69034 0.255517 1.75258 0.265344 1.8181 0.284999 1.88362 0.304654 1.95896 0.350517 2.04413 0.422585 2.12931 0.494654 2.21776 0.609309 2.30948 0.76655 2.4012 0.923791 2.4831 1.11707 2.55517 1.34638 2.57482 1.425 2.5912 1.47086 2.6043 1.48396 2.6174 1.49706 2.6731 1.50362 2.77137 1.50362 2.9024 1.50362 2.96792 1.47086 2.96792 1.40534 2.96792 1.35293 2.93844 1.25137 2.87948 1.10069 2.82051 0.949998 2.73862 0.782929 2.63379 0.599481 2.52896 0.416033 2.38154 0.252241 2.19155 0.108103 2.00155-0.0360344 1.79844-0.108103 1.58224-0.108103 1.37259-0.108103 1.17931-0.0393102 1.00241 0.0982756 0.825515 0.235861 0.733792 0.445516 0.727239 0.727239 0.727239 0.838618 0.743619 0.943446 0.776377 1.04172 0.809135 1.14 0.949998 1.51344 1.19896 2.16206 1.44792 2.82378 1.59206 3.22017 1.63138 3.3512 1.67069 3.48223 1.69361 3.60999 1.70017 3.73447 1.70017 3.89171 1.64448 3.97033 1.5331 3.97033L1.51344 3.97033C1.31689 3.97033 1.13672 3.86223 0.972929 3.64602 0.809135 3.42982 0.684654 3.15465 0.599481 2.82051 0.592929 2.81396 0.586378 2.80413 0.579826 2.79103 0.573274 2.77793 0.569999 2.7681 0.569999 2.76154 0.569999 2.75499 0.563447 2.74844 0.550343 2.74189 0.53724 2.73533 0.527413 2.73206 0.520861 2.73206 0.514309 2.73206 0.501206 2.73206 0.48155 2.73206 0.461895 2.73206 0.435688 2.73206 0.40293 2.73206L0.265344 2.73206C0.226034 2.77137 0.206379 2.80085 0.206379 2.82051Z" fill="#C9AB05" transform="matrix(1.00321 0 0 -1 694.017 364.088)"/><path d="M1.55684 7.78421 3.46119 9.64686 3.57239 9.53565C4.7771 8.38655 5.37944 7.80274 5.37944 7.78421L5.01803 7.3811C4.9995 7.39037 4.73075 7.62203 4.21181 8.07611L3.47509 8.71553 2.71057 8.06221C2.5901 7.96028 2.46964 7.85371 2.34916 7.74251 2.22869 7.6313 2.13139 7.54327 2.05725 7.4784L1.94605 7.395C1.92752 7.37647 1.85802 7.44133 1.73755 7.5896L1.55684 7.78421Z" fill="#C9AB05" transform="matrix(1.00321 0 0 -1 688.869 358.366)"/><path d="M0.834022 10.4114 0.889624 10.4253C0.935958 10.4253 0.982293 10.4253 1.02863 10.4253L1.19543 10.4253 1.58464 10.0917C2.45574 9.30398 3.09051 8.32169 3.48899 7.14479 3.88747 5.96789 4.08671 4.74465 4.08671 3.47509 4.08671 2.84495 4.04038 2.23796 3.9477 1.65414 3.85503 1.07033 3.74847 0.574548 3.628 0.166804 3.50752-0.240939 3.33609-0.648684 3.11368-1.05643 2.89128-1.46417 2.7152-1.77462 2.58547-1.98775 2.45574-2.20089 2.26576-2.43719 2.01555-2.69667 1.76535-2.95615 1.61707-3.10905 1.57074-3.15538 1.52441-3.20171 1.41784-3.28976 1.25103-3.41949 1.22323-3.44729 1.2047-3.46582 1.19543-3.47509L1.02863-3.47509C0.954492-3.47509 0.903524-3.47509 0.875723-3.47509 0.847923-3.47509 0.824755-3.46119 0.806221-3.43339 0.787688-3.40559 0.773788-3.36389 0.76452-3.30829 0.773788-3.29902 0.824755-3.23879 0.917424-3.12758 2.35379-1.63561 3.07198 0.565282 3.07198 3.47509 3.07198 6.3849 2.35379 8.5858 0.917424 10.0778 0.824755 10.189 0.773788 10.2492 0.76452 10.2585 0.76452 10.3326 0.787688 10.3836 0.834022 10.4114Z" fill="#C9AB05" transform="matrix(1.00321 0 0 -1 698.826 361.994)"/><path d="M1.0712 4.21602C0.894308 4.21602 0.753447 4.27499 0.648619 4.39292 0.543791 4.51085 0.491378 4.65499 0.491378 4.82533 0.491378 5.2905 0.664999 5.69343 1.01224 6.03412 1.35948 6.37481 1.79189 6.54516 2.30948 6.54516 2.90569 6.54516 3.40361 6.3617 3.80327 5.99481 4.20292 5.62792 4.40602 5.15291 4.41257 4.56982 4.41257 4.28809 4.34705 4.01947 4.21602 3.76396 4.08499 3.50844 3.92775 3.28568 3.7443 3.09568 3.56085 2.90569 3.29879 2.66327 2.9581 2.36844 2.72223 2.16534 2.39465 1.86396 1.97534 1.46431L1.39551 0.913963 2.14241 0.904136C3.17103 0.904136 3.71809 0.920515 3.78361 0.953273 3.82948 0.966376 3.9081 1.25793 4.01947 1.82793L4.01947 1.85741 4.41257 1.85741 4.41257 1.82793C4.40602 1.80827 4.36344 1.51017 4.28482 0.933618 4.2062 0.357068 4.15706 0.0556895 4.1374 0.0294827L4.1374 0 0.491378 0 0.491378 0.186724 0.491378 0.304654C0.491378 0.350517 0.511033 0.399654 0.550343 0.452068 0.589654 0.504481 0.687929 0.619136 0.84517 0.796032 1.03517 1.00568 1.19896 1.18913 1.33655 1.34638 1.39551 1.4119 1.50689 1.5331 1.67069 1.71 1.83448 1.88689 1.94586 2.00809 2.00482 2.07362 2.06379 2.13914 2.15879 2.24724 2.28982 2.39792 2.42085 2.54861 2.51258 2.66 2.56499 2.73206 2.6174 2.80413 2.69275 2.9024 2.79103 3.02689 2.8893 3.15137 2.9581 3.2562 2.99741 3.34137 3.03672 3.42655 3.08585 3.52154 3.14482 3.62637 3.20378 3.7312 3.24637 3.83602 3.27258 3.94085 3.29879 4.04568 3.32172 4.14396 3.34137 4.23568 3.36103 4.3274 3.37085 4.4355 3.37085 4.55999 3.37085 4.97275 3.25948 5.32981 3.03672 5.63119 2.81396 5.93257 2.4962 6.08326 2.08344 6.08326 1.86724 6.08326 1.67724 6.02757 1.51344 5.91619 1.34965 5.80482 1.235 5.69671 1.16948 5.59188 1.10396 5.48705 1.0712 5.42481 1.0712 5.40516 1.0712 5.3986 1.08759 5.39533 1.12034 5.39533 1.23827 5.39533 1.35948 5.34947 1.48396 5.25774 1.60845 5.16602 1.67069 5.01533 1.67069 4.80568 1.67069 4.64188 1.61828 4.5043 1.51344 4.39292 1.40861 4.28154 1.2612 4.22258 1.0712 4.21602Z" fill="#C9AB05" transform="matrix(1.00321 0 0 -1 704.248 356.265)"/><path d="M1.08423 0.834022C1.08423 1.05643 1.163 1.25103 1.32054 1.41784 1.47807 1.58464 1.67732 1.66804 1.91825 1.66804 2.14066 1.66804 2.33526 1.59391 2.50207 1.44564 2.66887 1.29737 2.7569 1.09813 2.76617 0.847923 2.76617 0.616249 2.6874 0.417011 2.52987 0.250207 2.37233 0.0834022 2.17309 0 1.93215 0 1.69122 0 1.49197 0.0787688 1.33444 0.236306 1.1769 0.393843 1.0935 0.593083 1.08423 0.834022Z" fill="#C9AB05" transform="matrix(1.00321 0 0 -1 710.582 361.994)"/></g></g></g></g></svg>